<svg width="24" height="24" viewBox="0 0 24 24" fill="none" xmlns="http://www.w3.org/2000/svg">
<g clip-path="url(#clip0_2036_633)">
<path d="M11.9962 21.5586C17.2732 21.5586 21.5511 17.2807 21.5511 12.0037C21.5511 6.72662 17.2732 2.44873 11.9962 2.44873C6.71911 2.44873 2.44122 6.72662 2.44122 12.0037C2.44122 17.2807 6.71911 21.5586 11.9962 21.5586Z" fill="#6A90BB"/>
<path d="M12.0187 23.9997C7.33137 23.9997 2.8694 21.2354 0.938884 16.6533C-1.63013 10.5537 1.24687 3.50022 7.3464 0.938713C13.4309 -1.62279 20.4919 1.24669 23.0609 7.34622C25.6225 13.4458 22.753 20.4993 16.6534 23.0608C15.1436 23.6993 13.5661 23.9997 12.0187 23.9997ZM5.44593 14.7528C6.9633 18.3659 11.1398 20.0786 14.753 18.5462C18.3586 17.0289 20.0638 12.8523 18.5464 9.23918C17.0215 5.63355 12.8525 3.92087 9.23935 5.44576C5.63372 6.96313 3.92856 11.1397 5.44593 14.7528Z" fill="#EFCD55"/>
<path d="M7.57175 1.76489C8.78114 2.65879 9.76518 3.65785 10.7117 4.66442C11.1699 5.17522 12.0112 5.52076 11.9436 6.26442C11.921 6.87287 11.5154 8.58555 10.261 9.13391C8.76612 9.07381 8.02245 8.69071 7.45907 8.22499C6.86565 7.77428 7.18865 6.91794 7.12105 6.23438C7.02339 4.85222 6.95579 3.45503 7.12105 1.9602L7.57175 1.76489Z" fill="#6A90BB"/>
<path d="M13.9043 15.0833C15.3992 15.1433 16.1428 15.5264 16.7062 15.9922C17.2996 16.4429 16.9766 17.2992 17.0442 17.9828C17.1419 19.3649 17.2095 20.7621 17.0442 22.257L16.5935 22.4523C15.3841 21.5584 14.4001 20.5593 13.4536 19.5527C12.9954 19.0419 12.1541 18.6964 12.2217 17.9527C12.2442 17.3443 12.6499 15.6316 13.9043 15.0833Z" fill="#6A90BB"/>
<path d="M1.59241 15.7068C2.5464 14.5425 3.59804 13.6185 4.6572 12.7246C5.19053 12.2964 5.58114 11.4702 6.31729 11.5753C6.92574 11.6279 8.61588 12.1312 9.09663 13.4082C8.96142 14.8955 8.53325 15.6241 8.03748 16.1575C7.55673 16.7209 6.71541 16.3603 6.03184 16.3903C4.64968 16.4204 3.2525 16.4054 1.76518 16.165L1.59241 15.7068Z" fill="#6A90BB"/>
<path d="M15.2189 10.0806C15.3541 8.59324 15.7823 7.86461 16.278 7.33127C16.7588 6.76789 17.6001 7.12846 18.2837 7.09841C19.6658 7.06836 21.063 7.08338 22.5503 7.32376L22.7231 7.78198C21.7691 8.9463 20.7175 9.87024 19.6583 10.7641C19.125 11.1923 18.7344 12.0186 17.9982 11.9134C17.3898 11.8608 15.6996 11.3576 15.2189 10.0806Z" fill="#6A90BB"/>
</g>
<defs>
<clipPath id="clip0_2036_633">
<rect width="24" height="24" fill="white"/>
</clipPath>
</defs>
</svg>
