<svg width="663" height="39" viewBox="0 0 663 39" fill="none" xmlns="http://www.w3.org/2000/svg">
<path d="M17.8713 0.854394L30.4105 33.1788C30.9244 34.4807 31.5068 35.3543 32.1578 35.7997C32.8087 36.2109 33.4083 36.4335 33.9564 36.4678V37.4956C33.2712 37.4271 32.4319 37.3928 31.4383 37.3928C30.4448 37.3586 29.4512 37.3414 28.4577 37.3414C27.1215 37.3414 25.8711 37.3586 24.7062 37.3928C23.5414 37.3928 22.5992 37.4271 21.8797 37.4956V36.4678C23.627 36.3993 24.7405 36.1081 25.2201 35.5942C25.6998 35.046 25.597 33.8983 24.9118 32.151L15.3532 6.6101L16.1754 5.94203L7.23354 29.1704C6.51408 31.0204 6.17148 32.4765 6.20574 33.5386C6.24 34.5664 6.63399 35.303 7.38771 35.7483C8.14143 36.1937 9.23776 36.4335 10.6767 36.4678V37.4956C9.7174 37.4271 8.70673 37.3928 7.64466 37.3928C6.61686 37.3586 5.65757 37.3414 4.76681 37.3414C3.91031 37.3414 3.17372 37.3586 2.55703 37.3928C1.97461 37.3928 1.42645 37.4271 0.912546 37.4956V36.4678C1.59775 36.2965 2.30008 35.9025 3.01954 35.2858C3.73901 34.6349 4.38995 33.5386 4.97237 31.9969L17.0491 0.854394C17.1861 0.854394 17.3231 0.854394 17.4602 0.854394C17.5972 0.854394 17.7343 0.854394 17.8713 0.854394ZM24.1409 22.6952V23.723H8.82664L9.34054 22.6952H24.1409ZM48.8263 1.11135C54.9588 1.11135 59.5154 2.65305 62.4961 5.73646C65.4767 8.78562 66.967 13.1709 66.967 18.8924C66.967 22.6267 66.2304 25.8986 64.7572 28.7079C63.3183 31.483 61.2113 33.6413 58.4362 35.183C55.6612 36.7248 52.3037 37.4956 48.3638 37.4956C47.61 37.4956 46.4966 37.4785 45.0234 37.4442C43.5502 37.3757 42.2655 37.3414 41.1691 37.3414C39.97 37.3414 38.7881 37.3586 37.6232 37.3928C36.4584 37.3928 35.5162 37.4271 34.7968 37.4956V36.4678C35.9616 36.3993 36.8352 36.2622 37.4177 36.0567C38.0343 35.8511 38.4455 35.44 38.651 34.8233C38.8566 34.2066 38.9594 33.2816 38.9594 32.0482V6.55871C38.9594 5.29108 38.8566 4.36606 38.651 3.78364C38.4455 3.16695 38.0343 2.75583 37.4177 2.55027C36.8352 2.31045 35.9616 2.17341 34.7968 2.13915V1.11135C35.5162 1.14561 36.4584 1.197 37.6232 1.26552C38.7881 1.29978 39.9358 1.29978 41.0664 1.26552C42.2655 1.23126 43.6187 1.197 45.1262 1.16274C46.6336 1.12848 47.867 1.11135 48.8263 1.11135ZM47.5415 2.03637C45.9656 2.03637 44.9377 2.32758 44.4581 2.91C43.9785 3.49243 43.7386 4.6744 43.7386 6.45593V32.151C43.7386 33.9326 43.9785 35.1145 44.4581 35.6969C44.972 36.2794 46.0169 36.5706 47.5929 36.5706C51.3273 36.5706 54.2222 35.9025 56.2779 34.5664C58.3335 33.196 59.7724 31.2089 60.5946 28.6051C61.4169 26.0013 61.828 22.8323 61.828 19.0979C61.828 13.3422 60.7659 9.0597 58.6418 6.25037C56.5519 3.44103 52.8518 2.03637 47.5415 2.03637ZM125.176 1.11135V2.13915C124.011 2.17341 123.12 2.31045 122.503 2.55027C121.921 2.75583 121.527 3.16695 121.321 3.78364C121.116 4.36606 121.013 5.29108 121.013 6.55871V32.0482C121.013 33.2816 121.116 34.2066 121.321 34.8233C121.527 35.44 121.921 35.8511 122.503 36.0567C123.12 36.2622 124.011 36.3993 125.176 36.4678V37.4956C124.388 37.4271 123.394 37.3928 122.195 37.3928C121.03 37.3586 119.848 37.3414 118.649 37.3414C117.313 37.3414 116.062 37.3586 114.898 37.3928C113.733 37.3928 112.791 37.4271 112.071 37.4956V36.4678C113.236 36.3993 114.11 36.2622 114.692 36.0567C115.309 35.8511 115.72 35.44 115.925 34.8233C116.131 34.2066 116.234 33.2816 116.234 32.0482V3.78364L116.439 3.93781L103.849 37.7526H103.026L90.0761 4.40032V31.5343C90.0761 32.7677 90.1789 33.7441 90.3845 34.4636C90.6243 35.1488 91.0697 35.6456 91.7206 35.9539C92.4058 36.228 93.4165 36.3993 94.7526 36.4678V37.4956C94.136 37.4271 93.3308 37.3928 92.3373 37.3928C91.3438 37.3586 90.4016 37.3414 89.5108 37.3414C88.6543 37.3414 87.7807 37.3586 86.8899 37.3928C86.0334 37.3928 85.314 37.4271 84.7316 37.4956V36.4678C85.8964 36.3993 86.77 36.228 87.3525 35.9539C87.9691 35.6456 88.3803 35.1488 88.5858 34.4636C88.7914 33.7441 88.8942 32.7677 88.8942 31.5343V6.55871C88.8942 5.29108 88.7914 4.36606 88.5858 3.78364C88.3803 3.16695 87.9691 2.75583 87.3525 2.55027C86.77 2.31045 85.8964 2.17341 84.7316 2.13915V1.11135C85.314 1.14561 86.0334 1.17987 86.8899 1.21413C87.7807 1.24839 88.6543 1.26552 89.5108 1.26552C90.2646 1.26552 91.0354 1.24839 91.8234 1.21413C92.6456 1.17987 93.3308 1.14561 93.879 1.11135L105.545 31.8427L104.671 32.2538L116.234 1.26552C116.645 1.26552 117.039 1.26552 117.416 1.26552C117.827 1.26552 118.238 1.26552 118.649 1.26552C119.848 1.26552 121.03 1.24839 122.195 1.21413C123.394 1.17987 124.388 1.14561 125.176 1.11135ZM143.938 0.854394L156.477 33.1788C156.991 34.4807 157.573 35.3543 158.224 35.7997C158.875 36.2109 159.475 36.4335 160.023 36.4678V37.4956C159.338 37.4271 158.498 37.3928 157.505 37.3928C156.511 37.3586 155.518 37.3414 154.524 37.3414C153.188 37.3414 151.938 37.3586 150.773 37.3928C149.608 37.3928 148.666 37.4271 147.946 37.4956V36.4678C149.694 36.3993 150.807 36.1081 151.287 35.5942C151.766 35.046 151.664 33.8983 150.978 32.151L141.42 6.6101L142.242 5.94203L133.3 29.1704C132.581 31.0204 132.238 32.4765 132.272 33.5386C132.307 34.5664 132.701 35.303 133.454 35.7483C134.208 36.1937 135.304 36.4335 136.743 36.4678V37.4956C135.784 37.4271 134.773 37.3928 133.711 37.3928C132.683 37.3586 131.724 37.3414 130.833 37.3414C129.977 37.3414 129.24 37.3586 128.624 37.3928C128.041 37.3928 127.493 37.4271 126.979 37.4956V36.4678C127.664 36.2965 128.367 35.9025 129.086 35.2858C129.806 34.6349 130.457 33.5386 131.039 31.9969L143.116 0.854394C143.253 0.854394 143.39 0.854394 143.527 0.854394C143.664 0.854394 143.801 0.854394 143.938 0.854394ZM150.207 22.6952V23.723H134.893L135.407 22.6952H150.207ZM173.968 1.11135V2.13915C172.803 2.17341 171.912 2.31045 171.296 2.55027C170.713 2.75583 170.319 3.16695 170.114 3.78364C169.908 4.36606 169.805 5.29108 169.805 6.55871V32.0482C169.805 33.2816 169.908 34.2066 170.114 34.8233C170.319 35.44 170.713 35.8511 171.296 36.0567C171.912 36.2622 172.803 36.3993 173.968 36.4678V37.4956C173.18 37.4271 172.186 37.3928 170.987 37.3928C169.822 37.3586 168.64 37.3414 167.441 37.3414C166.105 37.3414 164.855 37.3586 163.69 37.3928C162.525 37.3928 161.583 37.4271 160.863 37.4956V36.4678C162.028 36.3993 162.902 36.2622 163.484 36.0567C164.101 35.8511 164.512 35.44 164.718 34.8233C164.923 34.2066 165.026 33.2816 165.026 32.0482V6.55871C165.026 5.29108 164.923 4.36606 164.718 3.78364C164.512 3.16695 164.101 2.75583 163.484 2.55027C162.902 2.31045 162.028 2.17341 160.863 2.13915V1.11135C161.583 1.14561 162.525 1.17987 163.69 1.21413C164.855 1.24839 166.105 1.26552 167.441 1.26552C168.64 1.26552 169.822 1.24839 170.987 1.21413C172.186 1.17987 173.18 1.14561 173.968 1.11135ZM194.784 0.391882C198.038 0.391882 200.882 1.12848 203.314 2.60166C205.781 4.07485 207.683 6.19898 209.019 8.97405C210.389 11.7149 211.074 15.0552 211.074 18.9951C211.074 22.8323 210.372 26.1898 208.967 29.0676C207.597 31.9455 205.678 34.1895 203.212 35.7997C200.745 37.41 197.918 38.2151 194.732 38.2151C191.478 38.2151 188.617 37.4785 186.15 36.0053C183.718 34.5321 181.816 32.408 180.446 29.6329C179.11 26.8578 178.442 23.5175 178.442 19.6118C178.442 15.7747 179.144 12.4172 180.549 9.53934C181.953 6.66149 183.872 4.41745 186.304 2.80722C188.771 1.197 191.597 0.391882 194.784 0.391882ZM194.578 1.31691C192.351 1.31691 190.415 2.08776 188.771 3.62947C187.127 5.17117 185.842 7.2953 184.917 10.0019C184.026 12.7084 183.581 15.8432 183.581 19.4063C183.581 23.0378 184.077 26.2069 185.071 28.9134C186.099 31.5857 187.469 33.6585 189.182 35.1317C190.929 36.5706 192.848 37.29 194.938 37.29C197.165 37.29 199.1 36.5192 200.745 34.9775C202.389 33.4358 203.657 31.3117 204.548 28.6051C205.473 25.8643 205.935 22.7295 205.935 19.2007C205.935 15.5349 205.421 12.3658 204.394 9.69351C203.4 7.02122 202.047 4.96561 200.334 3.52669C198.621 2.0535 196.702 1.31691 194.578 1.31691ZM215.566 1.11135C216.285 1.14561 217.227 1.17987 218.392 1.21413C219.557 1.24839 220.705 1.26552 221.835 1.26552C223.446 1.26552 224.987 1.24839 226.46 1.21413C227.934 1.17987 228.979 1.16274 229.595 1.16274C233.741 1.16274 236.841 2.01924 238.897 3.73225C240.953 5.44525 241.98 7.56938 241.98 10.1046C241.98 11.1324 241.775 12.2288 241.364 13.3936C240.953 14.5584 240.233 15.6548 239.205 16.6826C238.212 17.7104 236.841 18.5669 235.094 19.2521C233.347 19.903 231.137 20.2285 228.465 20.2285H223.531V19.2007H227.951C230.383 19.2007 232.233 18.8238 233.501 18.0701C234.803 17.2821 235.676 16.2543 236.122 14.9867C236.601 13.6848 236.841 12.2459 236.841 10.6699C236.841 7.96337 236.19 5.8735 234.888 4.40032C233.621 2.89287 231.428 2.13915 228.311 2.13915C226.735 2.13915 225.707 2.43036 225.227 3.01279C224.747 3.59521 224.508 4.77718 224.508 6.55871V32.0482C224.508 33.2816 224.61 34.2066 224.816 34.8233C225.022 35.44 225.416 35.8511 225.998 36.0567C226.615 36.2622 227.505 36.3993 228.67 36.4678V37.4956C227.882 37.4271 226.889 37.3928 225.69 37.3928C224.525 37.3586 223.343 37.3414 222.144 37.3414C220.808 37.3414 219.557 37.3586 218.392 37.3928C217.227 37.3928 216.285 37.4271 215.566 37.4956V36.4678C216.731 36.3993 217.604 36.2622 218.187 36.0567C218.803 35.8511 219.214 35.44 219.42 34.8233C219.626 34.2066 219.728 33.2816 219.728 32.0482V6.55871C219.728 5.29108 219.626 4.36606 219.42 3.78364C219.214 3.16695 218.803 2.75583 218.187 2.55027C217.604 2.31045 216.731 2.17341 215.566 2.13915V1.11135ZM223.737 19.3549C225.587 19.4234 227.043 19.509 228.105 19.6118C229.167 19.6803 230.024 19.7489 230.674 19.8174C231.36 19.8859 232.011 19.9715 232.627 20.0743C234.923 20.4512 236.567 21.1535 237.561 22.1813C238.589 23.1749 239.342 24.7337 239.822 26.8578L241.107 32.0996C241.449 33.6071 241.792 34.7034 242.134 35.3886C242.511 36.0395 243.077 36.3479 243.83 36.3136C244.413 36.2794 244.892 36.0909 245.269 35.7483C245.68 35.4057 246.109 34.9432 246.554 34.3608L247.325 34.9261C246.605 35.9882 245.852 36.8104 245.064 37.3928C244.31 37.941 243.231 38.2151 241.826 38.2151C240.559 38.2151 239.445 37.8382 238.486 37.0845C237.527 36.3308 236.807 34.8576 236.327 32.6649L235.197 27.5259C234.888 26.0527 234.529 24.7851 234.118 23.723C233.741 22.6267 233.193 21.7702 232.473 21.1535C231.788 20.5368 230.76 20.2285 229.39 20.2285H223.84L223.737 19.3549ZM274.533 1.11135C274.396 2.31045 274.293 3.4753 274.224 4.60588C274.19 5.73646 274.173 6.59297 274.173 7.17539C274.173 7.79207 274.19 8.39162 274.224 8.97405C274.259 9.52221 274.293 9.98472 274.327 10.3616H273.145C272.94 8.34024 272.649 6.74714 272.272 5.58229C271.895 4.38319 271.244 3.54382 270.319 3.06417C269.428 2.55027 268.075 2.29332 266.259 2.29332H261.994C260.829 2.29332 259.938 2.3961 259.321 2.60166C258.739 2.77296 258.345 3.16695 258.139 3.78364C257.934 4.36606 257.831 5.29108 257.831 6.55871V32.0482C257.831 33.2816 257.934 34.2066 258.139 34.8233C258.345 35.44 258.739 35.8511 259.321 36.0567C259.938 36.228 260.829 36.3136 261.994 36.3136H265.745C267.903 36.3136 269.531 36.0224 270.627 35.44C271.758 34.8576 272.563 33.9154 273.042 32.6135C273.556 31.2774 273.933 29.4787 274.173 27.2176H275.355C275.252 28.1426 275.201 29.376 275.201 30.9177C275.201 31.5686 275.218 32.5108 275.252 33.7441C275.321 34.9432 275.424 36.1937 275.561 37.4956C273.813 37.4271 271.843 37.3928 269.651 37.3928C267.458 37.3586 265.505 37.3414 263.792 37.3414C262.764 37.3414 261.394 37.3414 259.681 37.3414C258.002 37.3414 256.204 37.3586 254.285 37.3928C252.367 37.3928 250.568 37.4271 248.889 37.4956V36.4678C250.054 36.3993 250.928 36.2622 251.51 36.0567C252.127 35.8511 252.538 35.44 252.743 34.8233C252.949 34.2066 253.052 33.2816 253.052 32.0482V6.55871C253.052 5.29108 252.949 4.36606 252.743 3.78364C252.538 3.16695 252.127 2.75583 251.51 2.55027C250.928 2.31045 250.054 2.17341 248.889 2.13915V1.11135C250.568 1.14561 252.367 1.17987 254.285 1.21413C256.204 1.24839 258.002 1.26552 259.681 1.26552C261.394 1.26552 262.764 1.26552 263.792 1.26552C265.368 1.26552 267.15 1.26552 269.137 1.26552C271.158 1.23126 272.957 1.17987 274.533 1.11135ZM265.694 18.6868C265.694 18.6868 265.694 18.8581 265.694 19.2007C265.694 19.5433 265.694 19.7146 265.694 19.7146H256.289C256.289 19.7146 256.289 19.5433 256.289 19.2007C256.289 18.8581 256.289 18.6868 256.289 18.6868H265.694ZM267.184 11.9033C267.047 13.8561 266.978 15.3464 266.978 16.3742C267.013 17.402 267.03 18.3442 267.03 19.2007C267.03 20.0572 267.047 20.9994 267.081 22.0272C267.115 23.055 267.201 24.5453 267.338 26.4981H266.156C266.019 25.4018 265.848 24.3397 265.642 23.3119C265.471 22.2498 265.06 21.3933 264.409 20.7424C263.792 20.0572 262.73 19.7146 261.223 19.7146V18.6868C262.73 18.6868 263.775 18.2928 264.358 17.5048C264.974 16.7168 265.368 15.7918 265.54 14.7297C265.711 13.6677 265.865 12.7255 266.002 11.9033H267.184ZM320.649 1.11135V2.13915C319.484 2.17341 318.593 2.31045 317.977 2.55027C317.394 2.75583 317 3.16695 316.795 3.78364C316.589 4.36606 316.486 5.29108 316.486 6.55871V32.0482C316.486 33.2816 316.589 34.2066 316.795 34.8233C317 35.44 317.394 35.8511 317.977 36.0567C318.593 36.2622 319.484 36.3993 320.649 36.4678V37.4956C319.861 37.4271 318.868 37.3928 317.668 37.3928C316.504 37.3586 315.322 37.3414 314.123 37.3414C312.786 37.3414 311.536 37.3586 310.371 37.3928C309.206 37.3928 308.264 37.4271 307.545 37.4956V36.4678C308.709 36.3993 309.583 36.2622 310.165 36.0567C310.782 35.8511 311.193 35.44 311.399 34.8233C311.604 34.2066 311.707 33.2816 311.707 32.0482V3.78364L311.913 3.93781L299.322 37.7526H298.5L285.55 4.40032V31.5343C285.55 32.7677 285.652 33.7441 285.858 34.4636C286.098 35.1488 286.543 35.6456 287.194 35.9539C287.879 36.228 288.89 36.3993 290.226 36.4678V37.4956C289.609 37.4271 288.804 37.3928 287.811 37.3928C286.817 37.3586 285.875 37.3414 284.984 37.3414C284.128 37.3414 283.254 37.3586 282.363 37.3928C281.507 37.3928 280.787 37.4271 280.205 37.4956V36.4678C281.37 36.3993 282.243 36.228 282.826 35.9539C283.443 35.6456 283.854 35.1488 284.059 34.4636C284.265 33.7441 284.368 32.7677 284.368 31.5343V6.55871C284.368 5.29108 284.265 4.36606 284.059 3.78364C283.854 3.16695 283.443 2.75583 282.826 2.55027C282.243 2.31045 281.37 2.17341 280.205 2.13915V1.11135C280.787 1.14561 281.507 1.17987 282.363 1.21413C283.254 1.24839 284.128 1.26552 284.984 1.26552C285.738 1.26552 286.509 1.24839 287.297 1.21413C288.119 1.17987 288.804 1.14561 289.352 1.11135L301.018 31.8427L300.144 32.2538L311.707 1.26552C312.118 1.26552 312.512 1.26552 312.889 1.26552C313.3 1.26552 313.711 1.26552 314.123 1.26552C315.322 1.26552 316.504 1.24839 317.668 1.21413C318.868 1.17987 319.861 1.14561 320.649 1.11135ZM351.798 1.11135C357.93 1.11135 362.487 2.65305 365.467 5.73646C368.448 8.78562 369.938 13.1709 369.938 18.8924C369.938 22.6267 369.202 25.8986 367.729 28.7079C366.29 31.483 364.183 33.6413 361.408 35.183C358.632 36.7248 355.275 37.4956 351.335 37.4956C350.581 37.4956 349.468 37.4785 347.995 37.4442C346.522 37.3757 345.237 37.3414 344.14 37.3414C342.941 37.3414 341.759 37.3586 340.594 37.3928C339.43 37.3928 338.488 37.4271 337.768 37.4956V36.4678C338.933 36.3993 339.807 36.2622 340.389 36.0567C341.006 35.8511 341.417 35.44 341.622 34.8233C341.828 34.2066 341.931 33.2816 341.931 32.0482V6.55871C341.931 5.29108 341.828 4.36606 341.622 3.78364C341.417 3.16695 341.006 2.75583 340.389 2.55027C339.807 2.31045 338.933 2.17341 337.768 2.13915V1.11135C338.488 1.14561 339.43 1.197 340.594 1.26552C341.759 1.29978 342.907 1.29978 344.038 1.26552C345.237 1.23126 346.59 1.197 348.097 1.16274C349.605 1.12848 350.838 1.11135 351.798 1.11135ZM350.513 2.03637C348.937 2.03637 347.909 2.32758 347.429 2.91C346.95 3.49243 346.71 4.6744 346.71 6.45593V32.151C346.71 33.9326 346.95 35.1145 347.429 35.6969C347.943 36.2794 348.988 36.5706 350.564 36.5706C354.299 36.5706 357.194 35.9025 359.249 34.5664C361.305 33.196 362.744 31.2089 363.566 28.6051C364.388 26.0013 364.799 22.8323 364.799 19.0979C364.799 13.3422 363.737 9.0597 361.613 6.25037C359.523 3.44103 355.823 2.03637 350.513 2.03637ZM400.098 1.11135C399.96 2.31045 399.858 3.4753 399.789 4.60588C399.755 5.73646 399.738 6.59297 399.738 7.17539C399.738 7.79207 399.755 8.39162 399.789 8.97405C399.823 9.52221 399.858 9.98472 399.892 10.3616H398.71C398.504 8.34024 398.213 6.74714 397.836 5.58229C397.459 4.38319 396.809 3.54382 395.884 3.06417C394.993 2.55027 393.639 2.29332 391.824 2.29332H387.558C386.393 2.29332 385.503 2.3961 384.886 2.60166C384.304 2.77296 383.91 3.16695 383.704 3.78364C383.498 4.36606 383.396 5.29108 383.396 6.55871V32.0482C383.396 33.2816 383.498 34.2066 383.704 34.8233C383.91 35.44 384.304 35.8511 384.886 36.0567C385.503 36.228 386.393 36.3136 387.558 36.3136H391.31C393.468 36.3136 395.096 36.0224 396.192 35.44C397.322 34.8576 398.128 33.9154 398.607 32.6135C399.121 31.2774 399.498 29.4787 399.738 27.2176H400.92C400.817 28.1426 400.766 29.376 400.766 30.9177C400.766 31.5686 400.783 32.5108 400.817 33.7441C400.885 34.9432 400.988 36.1937 401.125 37.4956C399.378 37.4271 397.408 37.3928 395.215 37.3928C393.023 37.3586 391.07 37.3414 389.357 37.3414C388.329 37.3414 386.959 37.3414 385.246 37.3414C383.567 37.3414 381.768 37.3586 379.85 37.3928C377.931 37.3928 376.133 37.4271 374.454 37.4956V36.4678C375.619 36.3993 376.492 36.2622 377.075 36.0567C377.691 35.8511 378.103 35.44 378.308 34.8233C378.514 34.2066 378.616 33.2816 378.616 32.0482V6.55871C378.616 5.29108 378.514 4.36606 378.308 3.78364C378.103 3.16695 377.691 2.75583 377.075 2.55027C376.492 2.31045 375.619 2.17341 374.454 2.13915V1.11135C376.133 1.14561 377.931 1.17987 379.85 1.21413C381.768 1.24839 383.567 1.26552 385.246 1.26552C386.959 1.26552 388.329 1.26552 389.357 1.26552C390.933 1.26552 392.714 1.26552 394.702 1.26552C396.723 1.23126 398.522 1.17987 400.098 1.11135ZM391.258 18.6868C391.258 18.6868 391.258 18.8581 391.258 19.2007C391.258 19.5433 391.258 19.7146 391.258 19.7146H381.854C381.854 19.7146 381.854 19.5433 381.854 19.2007C381.854 18.8581 381.854 18.6868 381.854 18.6868H391.258ZM392.749 11.9033C392.612 13.8561 392.543 15.3464 392.543 16.3742C392.577 17.402 392.595 18.3442 392.595 19.2007C392.595 20.0572 392.612 20.9994 392.646 22.0272C392.68 23.055 392.766 24.5453 392.903 26.4981H391.721C391.584 25.4018 391.413 24.3397 391.207 23.3119C391.036 22.2498 390.625 21.3933 389.974 20.7424C389.357 20.0572 388.295 19.7146 386.787 19.7146V18.6868C388.295 18.6868 389.34 18.2928 389.922 17.5048C390.539 16.7168 390.933 15.7918 391.104 14.7297C391.276 13.6677 391.43 12.7255 391.567 11.9033H392.749ZM418.874 1.11135V2.13915C417.709 2.17341 416.819 2.31045 416.202 2.55027C415.62 2.75583 415.226 3.16695 415.02 3.78364C414.814 4.36606 414.712 5.29108 414.712 6.55871V32.0482C414.712 33.2816 414.814 34.2066 415.02 34.8233C415.226 35.44 415.62 35.8511 416.202 36.0567C416.819 36.2622 417.709 36.3993 418.874 36.4678V37.4956C418.086 37.4271 417.093 37.3928 415.894 37.3928C414.729 37.3586 413.547 37.3414 412.348 37.3414C411.012 37.3414 409.761 37.3586 408.596 37.3928C407.431 37.3928 406.489 37.4271 405.77 37.4956V36.4678C406.935 36.3993 407.808 36.2622 408.391 36.0567C409.007 35.8511 409.418 35.44 409.624 34.8233C409.83 34.2066 409.932 33.2816 409.932 32.0482V6.55871C409.932 5.29108 409.83 4.36606 409.624 3.78364C409.418 3.16695 409.007 2.75583 408.391 2.55027C407.808 2.31045 406.935 2.17341 405.77 2.13915V1.11135C406.489 1.14561 407.431 1.17987 408.596 1.21413C409.761 1.24839 411.012 1.26552 412.348 1.26552C413.547 1.26552 414.729 1.24839 415.894 1.21413C417.093 1.17987 418.086 1.14561 418.874 1.11135ZM453.146 0.391882C455.373 0.391882 457.171 0.734484 458.542 1.41969C459.912 2.07063 461.197 2.84148 462.396 3.73225C462.841 4.07485 463.184 4.24615 463.424 4.24615C464.075 4.24615 464.503 3.20122 464.709 1.11135H465.891C465.822 2.37897 465.771 3.92068 465.736 5.73646C465.702 7.55225 465.685 9.95046 465.685 12.9311H464.503C464.263 11.4922 463.972 10.1046 463.629 8.76849C463.287 7.43234 462.722 6.28463 461.934 5.32534C460.94 4.05772 459.638 3.0813 458.028 2.3961C456.418 1.67664 454.756 1.31691 453.043 1.31691C451.33 1.31691 449.771 1.74516 448.367 2.60166C446.996 3.42391 445.814 4.62301 444.821 6.19898C443.827 7.77494 443.056 9.67638 442.508 11.9033C441.994 14.0959 441.737 16.5798 441.737 19.3549C441.737 25.5217 442.731 30.044 444.718 32.9219C446.705 35.7655 449.788 37.1873 453.968 37.1873C455.201 37.1873 456.264 37.016 457.154 36.6734C458.079 36.2965 458.799 35.9368 459.313 35.5942C459.964 35.1488 460.375 34.7377 460.546 34.3608C460.717 33.9497 460.803 33.4186 460.803 32.7677V27.8342C460.803 26.4296 460.666 25.3846 460.392 24.6994C460.118 24.0142 459.604 23.5517 458.85 23.3119C458.131 23.0721 457.052 22.935 455.613 22.9008V21.873C456.229 21.9072 456.949 21.9415 457.771 21.9758C458.593 21.9758 459.45 21.9929 460.34 22.0272C461.266 22.0272 462.105 22.0272 462.859 22.0272C463.989 22.0272 465 22.01 465.891 21.9758C466.816 21.9415 467.587 21.9072 468.203 21.873V22.9008C467.073 22.9693 466.353 23.2434 466.045 23.723C465.736 24.2027 465.582 25.4018 465.582 27.3203V37.4956H464.554C464.52 36.9132 464.383 36.2794 464.143 35.5942C463.938 34.909 463.612 34.5664 463.167 34.5664C462.961 34.5664 462.756 34.6178 462.55 34.7205C462.345 34.8233 461.985 35.0631 461.471 35.44C460.34 36.2965 459.141 36.9817 457.874 37.4956C456.606 37.9752 455.133 38.2151 453.454 38.2151C448.144 38.2151 443.998 36.6048 441.018 33.3844C438.071 30.1297 436.598 25.6416 436.598 19.9202C436.598 15.9117 437.318 12.4514 438.757 9.53934C440.196 6.62723 442.148 4.38319 444.615 2.80722C447.116 1.197 449.96 0.391882 453.146 0.391882ZM485.22 1.11135V2.13915C484.055 2.17341 483.164 2.31045 482.547 2.55027C481.965 2.75583 481.571 3.16695 481.366 3.78364C481.16 4.36606 481.057 5.29108 481.057 6.55871V32.0482C481.057 33.2816 481.16 34.2066 481.366 34.8233C481.571 35.44 481.965 35.8511 482.547 36.0567C483.164 36.228 484.055 36.3136 485.22 36.3136H488.971C491.13 36.3136 492.757 36.0053 493.853 35.3886C494.984 34.7719 495.789 33.7613 496.269 32.3566C496.783 30.9519 497.159 29.0676 497.399 26.7037H498.581C498.478 27.7657 498.427 29.1704 498.427 30.9177C498.427 31.5686 498.444 32.5108 498.478 33.7441C498.547 34.9432 498.65 36.1937 498.787 37.4956C497.04 37.4271 495.07 37.3928 492.877 37.3928C490.684 37.3586 488.731 37.3414 487.018 37.3414C485.991 37.3414 484.62 37.3414 482.907 37.3414C481.228 37.3414 479.43 37.3586 477.511 37.3928C475.593 37.3928 473.794 37.4271 472.115 37.4956V36.4678C473.28 36.3993 474.154 36.2622 474.736 36.0567C475.353 35.8511 475.764 35.44 475.97 34.8233C476.175 34.2066 476.278 33.2816 476.278 32.0482V6.55871C476.278 5.29108 476.175 4.36606 475.97 3.78364C475.764 3.16695 475.353 2.75583 474.736 2.55027C474.154 2.31045 473.28 2.17341 472.115 2.13915V1.11135C472.835 1.14561 473.777 1.17987 474.942 1.21413C476.107 1.24839 477.357 1.26552 478.693 1.26552C479.892 1.26552 481.074 1.24839 482.239 1.21413C483.438 1.17987 484.432 1.14561 485.22 1.11135ZM519.234 0.391882C522.489 0.391882 525.333 1.12848 527.765 2.60166C530.232 4.07485 532.133 6.19898 533.47 8.97405C534.84 11.7149 535.525 15.0552 535.525 18.9951C535.525 22.8323 534.823 26.1898 533.418 29.0676C532.048 31.9455 530.129 34.1895 527.662 35.7997C525.196 37.41 522.369 38.2151 519.183 38.2151C515.928 38.2151 513.068 37.4785 510.601 36.0053C508.168 34.5321 506.267 32.408 504.897 29.6329C503.56 26.8578 502.892 23.5175 502.892 19.6118C502.892 15.7747 503.595 12.4172 504.999 9.53934C506.404 6.66149 508.323 4.41745 510.755 2.80722C513.222 1.197 516.048 0.391882 519.234 0.391882ZM519.029 1.31691C516.802 1.31691 514.866 2.08776 513.222 3.62947C511.577 5.17117 510.293 7.2953 509.368 10.0019C508.477 12.7084 508.031 15.8432 508.031 19.4063C508.031 23.0378 508.528 26.2069 509.522 28.9134C510.549 31.5857 511.92 33.6585 513.633 35.1317C515.38 36.5706 517.299 37.29 519.389 37.29C521.616 37.29 523.551 36.5192 525.196 34.9775C526.84 33.4358 528.108 31.3117 528.999 28.6051C529.924 25.8643 530.386 22.7295 530.386 19.2007C530.386 15.5349 529.872 12.3658 528.844 9.69351C527.851 7.02122 526.498 4.96561 524.785 3.52669C523.072 2.0535 521.153 1.31691 519.029 1.31691ZM540.017 1.11135C540.736 1.14561 541.678 1.17987 542.843 1.21413C544.008 1.24839 545.156 1.26552 546.286 1.26552C547.896 1.26552 549.438 1.24839 550.911 1.21413C552.384 1.17987 553.429 1.16274 554.046 1.16274C558.192 1.16274 561.292 2.01924 563.348 3.73225C565.403 5.44525 566.431 7.56938 566.431 10.1046C566.431 11.1324 566.226 12.2288 565.814 13.3936C565.403 14.5584 564.684 15.6548 563.656 16.6826C562.662 17.7104 561.292 18.5669 559.545 19.2521C557.798 19.903 555.588 20.2285 552.915 20.2285H547.982V19.2007H552.402C554.834 19.2007 556.684 18.8238 557.952 18.0701C559.254 17.2821 560.127 16.2543 560.573 14.9867C561.052 13.6848 561.292 12.2459 561.292 10.6699C561.292 7.96337 560.641 5.8735 559.339 4.40032C558.072 2.89287 555.879 2.13915 552.761 2.13915C551.185 2.13915 550.158 2.43036 549.678 3.01279C549.198 3.59521 548.958 4.77718 548.958 6.55871V32.0482C548.958 33.2816 549.061 34.2066 549.267 34.8233C549.472 35.44 549.866 35.8511 550.449 36.0567C551.065 36.2622 551.956 36.3993 553.121 36.4678V37.4956C552.333 37.4271 551.34 37.3928 550.14 37.3928C548.976 37.3586 547.794 37.3414 546.594 37.3414C545.258 37.3414 544.008 37.3586 542.843 37.3928C541.678 37.3928 540.736 37.4271 540.017 37.4956V36.4678C541.181 36.3993 542.055 36.2622 542.637 36.0567C543.254 35.8511 543.665 35.44 543.871 34.8233C544.076 34.2066 544.179 33.2816 544.179 32.0482V6.55871C544.179 5.29108 544.076 4.36606 543.871 3.78364C543.665 3.16695 543.254 2.75583 542.637 2.55027C542.055 2.31045 541.181 2.17341 540.017 2.13915V1.11135ZM548.188 19.3549C550.038 19.4234 551.494 19.509 552.556 19.6118C553.618 19.6803 554.474 19.7489 555.125 19.8174C555.81 19.8859 556.461 19.9715 557.078 20.0743C559.374 20.4512 561.018 21.1535 562.012 22.1813C563.039 23.1749 563.793 24.7337 564.273 26.8578L565.557 32.0996C565.9 33.6071 566.243 34.7034 566.585 35.3886C566.962 36.0395 567.527 36.3479 568.281 36.3136C568.864 36.2794 569.343 36.0909 569.72 35.7483C570.131 35.4057 570.559 34.9432 571.005 34.3608L571.776 34.9261C571.056 35.9882 570.302 36.8104 569.515 37.3928C568.761 37.941 567.682 38.2151 566.277 38.2151C565.009 38.2151 563.896 37.8382 562.937 37.0845C561.977 36.3308 561.258 34.8576 560.778 32.6649L559.648 27.5259C559.339 26.0527 558.98 24.7851 558.568 23.723C558.192 22.6267 557.643 21.7702 556.924 21.1535C556.239 20.5368 555.211 20.2285 553.841 20.2285H548.29L548.188 19.3549ZM586.444 1.11135V2.13915C585.28 2.17341 584.389 2.31045 583.772 2.55027C583.19 2.75583 582.796 3.16695 582.59 3.78364C582.385 4.36606 582.282 5.29108 582.282 6.55871V32.0482C582.282 33.2816 582.385 34.2066 582.59 34.8233C582.796 35.44 583.19 35.8511 583.772 36.0567C584.389 36.2622 585.28 36.3993 586.444 36.4678V37.4956C585.656 37.4271 584.663 37.3928 583.464 37.3928C582.299 37.3586 581.117 37.3414 579.918 37.3414C578.582 37.3414 577.331 37.3586 576.166 37.3928C575.002 37.3928 574.059 37.4271 573.34 37.4956V36.4678C574.505 36.3993 575.378 36.2622 575.961 36.0567C576.577 35.8511 576.989 35.44 577.194 34.8233C577.4 34.2066 577.503 33.2816 577.503 32.0482V6.55871C577.503 5.29108 577.4 4.36606 577.194 3.78364C576.989 3.16695 576.577 2.75583 575.961 2.55027C575.378 2.31045 574.505 2.17341 573.34 2.13915V1.11135C574.059 1.14561 575.002 1.17987 576.166 1.21413C577.331 1.24839 578.582 1.26552 579.918 1.26552C581.117 1.26552 582.299 1.24839 583.464 1.21413C584.663 1.17987 585.656 1.14561 586.444 1.11135ZM605.195 0.854394L617.734 33.1788C618.248 34.4807 618.831 35.3543 619.481 35.7997C620.132 36.2109 620.732 36.4335 621.28 36.4678V37.4956C620.595 37.4271 619.756 37.3928 618.762 37.3928C617.768 37.3586 616.775 37.3414 615.781 37.3414C614.445 37.3414 613.195 37.3586 612.03 37.3928C610.865 37.3928 609.923 37.4271 609.203 37.4956V36.4678C610.951 36.3993 612.064 36.1081 612.544 35.5942C613.023 35.046 612.921 33.8983 612.235 32.151L602.677 6.6101L603.499 5.94203L594.557 29.1704C593.838 31.0204 593.495 32.4765 593.529 33.5386C593.564 34.5664 593.958 35.303 594.711 35.7483C595.465 36.1937 596.561 36.4335 598 36.4678V37.4956C597.041 37.4271 596.03 37.3928 594.968 37.3928C593.941 37.3586 592.981 37.3414 592.09 37.3414C591.234 37.3414 590.497 37.3586 589.881 37.3928C589.298 37.3928 588.75 37.4271 588.236 37.4956V36.4678C588.921 36.2965 589.624 35.9025 590.343 35.2858C591.063 34.6349 591.714 33.5386 592.296 31.9969L604.373 0.854394C604.51 0.854394 604.647 0.854394 604.784 0.854394C604.921 0.854394 605.058 0.854394 605.195 0.854394ZM611.465 22.6952V23.723H596.15L596.664 22.6952H611.465ZM662.565 1.11135V2.13915C661.4 2.17341 660.509 2.31045 659.892 2.55027C659.31 2.75583 658.916 3.16695 658.71 3.78364C658.505 4.36606 658.402 5.29108 658.402 6.55871V32.0482C658.402 33.2816 658.505 34.2066 658.71 34.8233C658.916 35.44 659.31 35.8511 659.892 36.0567C660.509 36.2622 661.4 36.3993 662.565 36.4678V37.4956C661.777 37.4271 660.783 37.3928 659.584 37.3928C658.419 37.3586 657.237 37.3414 656.038 37.3414C654.702 37.3414 653.451 37.3586 652.286 37.3928C651.122 37.3928 650.179 37.4271 649.46 37.4956V36.4678C650.625 36.3993 651.498 36.2622 652.081 36.0567C652.698 35.8511 653.109 35.44 653.314 34.8233C653.52 34.2066 653.623 33.2816 653.623 32.0482V3.78364L653.828 3.93781L641.238 37.7526H640.415L627.465 4.40032V31.5343C627.465 32.7677 627.568 33.7441 627.773 34.4636C628.013 35.1488 628.459 35.6456 629.109 35.9539C629.795 36.228 630.805 36.3993 632.142 36.4678V37.4956C631.525 37.4271 630.72 37.3928 629.726 37.3928C628.733 37.3586 627.79 37.3414 626.9 37.3414C626.043 37.3414 625.17 37.3586 624.279 37.3928C623.422 37.3928 622.703 37.4271 622.12 37.4956V36.4678C623.285 36.3993 624.159 36.228 624.741 35.9539C625.358 35.6456 625.769 35.1488 625.975 34.4636C626.18 33.7441 626.283 32.7677 626.283 31.5343V6.55871C626.283 5.29108 626.18 4.36606 625.975 3.78364C625.769 3.16695 625.358 2.75583 624.741 2.55027C624.159 2.31045 623.285 2.17341 622.12 2.13915V1.11135C622.703 1.14561 623.422 1.17987 624.279 1.21413C625.17 1.24839 626.043 1.26552 626.9 1.26552C627.653 1.26552 628.424 1.24839 629.212 1.21413C630.035 1.17987 630.72 1.14561 631.268 1.11135L642.933 31.8427L642.06 32.2538L653.623 1.26552C654.034 1.26552 654.428 1.26552 654.805 1.26552C655.216 1.26552 655.627 1.26552 656.038 1.26552C657.237 1.26552 658.419 1.24839 659.584 1.21413C660.783 1.17987 661.777 1.14561 662.565 1.11135Z" fill="#3B3F44"/>
</svg>
